<svg width="17" height="16" viewBox="0 0 17 16" fill="none" xmlns="http://www.w3.org/2000/svg">
<g id="arrow-up-circle-line" clip-path="url(#clip0_59_28363)">
<path id="Vector" d="M8.92741 1.33325C12.6074 1.33325 15.5941 4.31992 15.5941 7.99992C15.5941 11.6799 12.6074 14.6666 8.92741 14.6666C5.24741 14.6666 2.26074 11.6799 2.26074 7.99992C2.26074 4.31992 5.24741 1.33325 8.92741 1.33325ZM8.92741 13.3333C11.8741 13.3333 14.2607 10.9466 14.2607 7.99992C14.2607 5.05325 11.8741 2.66659 8.92741 2.66659C5.98074 2.66659 3.59408 5.05325 3.59408 7.99992C3.59408 10.9466 5.98074 13.3333 8.92741 13.3333ZM9.59408 7.99992V10.6666H8.26074V7.99992H6.26074L8.92741 5.33325L11.5941 7.99992H9.59408Z" fill="#A4A8AB"/>
</g>
<defs>
<clipPath id="clip0_59_28363">
<rect width="16" height="16" fill="white" transform="translate(0.927734)"/>
</clipPath>
</defs>
</svg>
