<svg xmlns="http://www.w3.org/2000/svg" version="1.1" xmlns:xlink="http://www.w3.org/1999/xlink" width="512" height="512" x="0" y="0" viewBox="0 0 512 512" style="enable-background:new 0 0 512 512" xml:space="preserve" class=""><g><path d="M222.3 157.5c-9.4 0-14.1-11.3-7.4-17.9L320 34.4c8.2-8.2 21.5-8.2 29.7 0l105.1 105.1c6.6 6.6 1.9 17.9-7.4 17.9H394V294c0 11.6-9.4 21-21 21h-76.2c-11.6 0-21-9.4-21-21V157.5zm-157.7 197c-9.4 0-14 11.3-7.4 17.9l105.1 105.1c8.2 8.2 21.5 8.2 29.7 0l105.1-105.1c6.6-6.6 1.9-17.9-7.4-17.9h-53.4V217.9c0-11.6-9.4-21-21-21h-76.2c-11.6 0-21 9.4-21 21v136.6z" fill="#ffffff" opacity="1" data-original="#000000"></path></g></svg>